<svg width="82" height="82" viewBox="0 0 82 82" fill="none" xmlns="http://www.w3.org/2000/svg">
<path d="M30.75 10.25H7.6875C3.44836 10.25 0 13.6984 0 17.9375V41C0 45.2391 3.44836 48.6875 7.6875 48.6875H18.0313L14.1413 68.6983C13.9949 69.4503 14.1926 70.2273 14.6793 70.8178C15.166 71.4084 15.8905 71.75 16.6562 71.75H24.9581C27.1865 71.75 29.1672 70.2923 29.8416 68.1815L37.3014 50.4868C37.3439 50.3854 37.3802 50.2816 37.409 50.1765C38.0922 47.7216 38.4375 45.1828 38.4375 42.6316V17.9375C38.4375 13.6984 34.9891 10.25 30.75 10.25Z" fill="#FF4D00"/>
<path d="M74.3125 10.25H51.25C47.0109 10.25 43.5625 13.6984 43.5625 17.9375V41C43.5625 45.2391 47.0109 48.6875 51.25 48.6875H61.5951L57.7038 68.6983C57.5562 69.4503 57.7539 70.2273 58.2418 70.8178C58.7273 71.4084 59.453 71.75 60.2188 71.75H68.5218C70.7515 71.75 72.731 70.2923 73.4041 68.1803L80.8639 50.4867C80.9064 50.3854 80.9414 50.2815 80.9715 50.1764C81.6547 47.7191 82 45.1803 82 42.6316V17.9375C82 13.6984 78.5516 10.25 74.3125 10.25Z" fill="#FF4D00"/>
</svg>
